<mxfile host="app.diagrams.net" modified="2023-05-30T08:16:44.298Z" agent="5.0 (Windows NT 10.0; Win64; x64) AppleWebKit/537.36 (KHTML, like Gecko) Chrome/113.0.0.0 Safari/537.36" etag="-8sY7woTP9-OMkUKGfxF" version="20.5.1" type="github">
  <diagram id="prtHgNgQTEPvFCAcTncT" name="Page-1">
    <mxGraphModel dx="662" dy="807" grid="1" gridSize="10" guides="1" tooltips="1" connect="1" arrows="1" fold="1" page="1" pageScale="1" pageWidth="827" pageHeight="1169" math="0" shadow="0">
      <root>
        <mxCell id="0" />
        <mxCell id="1" parent="0" />
        <mxCell id="oXfGyR6Q4MS-DNeiZDwS-1" value="&lt;p&gt;&lt;br&gt;&lt;/p&gt;" style="text;whiteSpace=wrap;html=1;fontSize=25;" parent="1" vertex="1">
          <mxGeometry x="1200" y="89.1" width="30" height="332.5" as="geometry" />
        </mxCell>
        <mxCell id="nycaLOQwl6AMqy3h6ecp-25" value="" style="rounded=0;whiteSpace=wrap;html=1;fontFamily=Times New Roman;fillColor=#fff2cc;strokeColor=none;" vertex="1" parent="1">
          <mxGeometry x="1121" y="830" width="590" height="240" as="geometry" />
        </mxCell>
        <mxCell id="nycaLOQwl6AMqy3h6ecp-26" value="" style="rounded=0;whiteSpace=wrap;html=1;fontFamily=Times New Roman;fillColor=#dae8fc;strokeColor=none;" vertex="1" parent="1">
          <mxGeometry x="1120" y="440" width="591" height="390" as="geometry" />
        </mxCell>
        <mxCell id="nycaLOQwl6AMqy3h6ecp-27" value="" style="rounded=0;whiteSpace=wrap;html=1;fontFamily=Times New Roman;fillColor=#d5e8d4;strokeColor=none;" vertex="1" parent="1">
          <mxGeometry x="1121" y="80" width="590" height="360" as="geometry" />
        </mxCell>
        <mxCell id="nycaLOQwl6AMqy3h6ecp-64" style="edgeStyle=orthogonalEdgeStyle;rounded=0;orthogonalLoop=1;jettySize=auto;html=1;exitX=0.5;exitY=1;exitDx=0;exitDy=0;entryX=0.25;entryY=0;entryDx=0;entryDy=0;" edge="1" parent="1" source="nycaLOQwl6AMqy3h6ecp-29" target="nycaLOQwl6AMqy3h6ecp-38">
          <mxGeometry relative="1" as="geometry" />
        </mxCell>
        <mxCell id="nycaLOQwl6AMqy3h6ecp-29" value="&lt;font face=&quot;宋体&quot;&gt;数&lt;br&gt;据&lt;br&gt;收&lt;br&gt;集&lt;/font&gt;" style="rounded=0;whiteSpace=wrap;html=1;fontSize=24;fillColor=none;" vertex="1" parent="1">
          <mxGeometry x="1191" y="103" width="59" height="237" as="geometry" />
        </mxCell>
        <mxCell id="nycaLOQwl6AMqy3h6ecp-65" style="edgeStyle=orthogonalEdgeStyle;rounded=0;orthogonalLoop=1;jettySize=auto;html=1;exitX=0.5;exitY=1;exitDx=0;exitDy=0;entryX=0.5;entryY=0;entryDx=0;entryDy=0;" edge="1" parent="1" source="nycaLOQwl6AMqy3h6ecp-33" target="nycaLOQwl6AMqy3h6ecp-42">
          <mxGeometry relative="1" as="geometry" />
        </mxCell>
        <mxCell id="nycaLOQwl6AMqy3h6ecp-33" value="&lt;span style=&quot;font-family: &amp;quot;Times New Roman&amp;quot;, serif;&quot; lang=&quot;EN-US&quot;&gt;&lt;font style=&quot;font-size: 24px;&quot;&gt;用CAACO求解物流配送方案&lt;/font&gt;&lt;/span&gt;" style="rounded=0;whiteSpace=wrap;html=1;fontSize=24;fillColor=none;" vertex="1" parent="1">
          <mxGeometry x="1410" y="470" width="120" height="205" as="geometry" />
        </mxCell>
        <mxCell id="nycaLOQwl6AMqy3h6ecp-34" value="&lt;font face=&quot;宋体&quot; style=&quot;font-size: 24px;&quot;&gt;&lt;b&gt;基于启发式算法的物流配送系统设计与实现&lt;/b&gt;&lt;/font&gt;" style="rounded=1;whiteSpace=wrap;html=1;fillColor=none;" vertex="1" parent="1">
          <mxGeometry x="1135" y="10" width="520" height="50" as="geometry" />
        </mxCell>
        <mxCell id="nycaLOQwl6AMqy3h6ecp-37" style="edgeStyle=orthogonalEdgeStyle;shape=flexArrow;rounded=0;orthogonalLoop=1;jettySize=auto;html=1;fontFamily=Times New Roman;fontSize=24;" edge="1" parent="1" target="nycaLOQwl6AMqy3h6ecp-40">
          <mxGeometry relative="1" as="geometry">
            <mxPoint x="1315" y="420" as="sourcePoint" />
          </mxGeometry>
        </mxCell>
        <mxCell id="nycaLOQwl6AMqy3h6ecp-38" value="&lt;font face=&quot;宋体&quot;&gt;建立物流配送模型&lt;/font&gt;" style="whiteSpace=wrap;html=1;fontSize=24;fillColor=none;rounded=0;" vertex="1" parent="1">
          <mxGeometry x="1165" y="370.6" width="230" height="50" as="geometry" />
        </mxCell>
        <mxCell id="nycaLOQwl6AMqy3h6ecp-39" value="" style="edgeStyle=orthogonalEdgeStyle;rounded=0;orthogonalLoop=1;jettySize=auto;html=1;" edge="1" parent="1" source="nycaLOQwl6AMqy3h6ecp-40" target="nycaLOQwl6AMqy3h6ecp-33">
          <mxGeometry relative="1" as="geometry" />
        </mxCell>
        <mxCell id="nycaLOQwl6AMqy3h6ecp-40" value="&lt;font face=&quot;宋体&quot;&gt;针对物流配送路径规划提出新的&lt;/font&gt;&lt;span style=&quot;font-family: &amp;quot;Times New Roman&amp;quot;, serif;&quot;&gt;CAACO&lt;/span&gt;&lt;font face=&quot;宋体&quot;&gt;&lt;br&gt;&lt;/font&gt;&lt;font face=&quot;宋体&quot;&gt;&lt;span&gt;算法&lt;/span&gt;&lt;/font&gt;" style="whiteSpace=wrap;html=1;fontSize=24;fillColor=none;rounded=0;" vertex="1" parent="1">
          <mxGeometry x="1246" y="487.5" width="138" height="170" as="geometry" />
        </mxCell>
        <mxCell id="nycaLOQwl6AMqy3h6ecp-41" value="" style="edgeStyle=orthogonalEdgeStyle;rounded=0;orthogonalLoop=1;jettySize=auto;html=1;" edge="1" parent="1" source="nycaLOQwl6AMqy3h6ecp-42" target="nycaLOQwl6AMqy3h6ecp-43">
          <mxGeometry relative="1" as="geometry" />
        </mxCell>
        <mxCell id="nycaLOQwl6AMqy3h6ecp-42" value="&lt;font face=&quot;宋体&quot;&gt;&lt;span&gt;与其他传统的&lt;/span&gt;&lt;span&gt;算法进行&lt;/span&gt;&lt;span&gt;性能分析比较。&lt;/span&gt;&lt;/font&gt;" style="whiteSpace=wrap;html=1;fontSize=24;fillColor=none;rounded=0;" vertex="1" parent="1">
          <mxGeometry x="1263" y="730" width="414" height="60" as="geometry" />
        </mxCell>
        <mxCell id="nycaLOQwl6AMqy3h6ecp-71" style="edgeStyle=orthogonalEdgeStyle;rounded=0;orthogonalLoop=1;jettySize=auto;html=1;exitX=0.25;exitY=1;exitDx=0;exitDy=0;entryX=0.5;entryY=0;entryDx=0;entryDy=0;" edge="1" parent="1" source="nycaLOQwl6AMqy3h6ecp-43" target="nycaLOQwl6AMqy3h6ecp-66">
          <mxGeometry relative="1" as="geometry" />
        </mxCell>
        <mxCell id="nycaLOQwl6AMqy3h6ecp-43" value="&lt;font face=&quot;宋体&quot;&gt;基于 CAACO 设计并实现物流配送路径规划系统&lt;/font&gt;" style="whiteSpace=wrap;html=1;fontSize=24;fillColor=none;rounded=0;" vertex="1" parent="1">
          <mxGeometry x="1261.5" y="860" width="417" height="60" as="geometry" />
        </mxCell>
        <mxCell id="nycaLOQwl6AMqy3h6ecp-46" value="&lt;span style=&quot;font-size: 24px;&quot;&gt;建&lt;/span&gt;&lt;br&gt;&lt;span style=&quot;font-size: 24px;&quot;&gt;立&lt;/span&gt;&lt;br&gt;&lt;div&gt;&lt;span style=&quot;background-color: initial; text-align: start; font-size: 24px;&quot;&gt;物&lt;/span&gt;&lt;/div&gt;&lt;div&gt;&lt;span style=&quot;background-color: initial; text-align: start; font-size: 24px;&quot;&gt;流&lt;/span&gt;&lt;/div&gt;&lt;div&gt;&lt;span style=&quot;background-color: initial; text-align: start; font-size: 24px;&quot;&gt;配&lt;/span&gt;&lt;/div&gt;&lt;div&gt;&lt;span style=&quot;background-color: initial; text-align: start; font-size: 24px;&quot;&gt;送&lt;/span&gt;&lt;span style=&quot;background-color: initial; color: rgba(0, 0, 0, 0); font-family: monospace; font-size: 0px; text-align: start;&quot;&gt;%3CmxGraphModel%3E%3Croot%3E%3CmxCell%20id%3D%220%22%2F%3E%3CmxCell%20id%3D%221%22%20parent%3D%220%22%2F%3E%3CmxCell%20id%3D%222%22%20value%3D%22%26lt%3Bfont%20style%3D%26quot%3Bfont-size%3A%2024px%3B%26quot%3B%26gt%3B%E6%8F%90%26lt%3Bbr%26gt%3B%E5%87%BA%26lt%3Bbr%26gt%3B%E6%96%B0%26lt%3Bbr%26gt%3B%E7%9A%84%26lt%3Bbr%26gt%3B%E7%AE%97%26lt%3Bbr%26gt%3B%E6%B3%95%26lt%3Bbr%26gt%3B%26lt%3B%2Ffont%26gt%3B%22%20style%3D%22rounded%3D0%3BwhiteSpace%3Dwrap%3Bhtml%3D1%3BfontFamily%3DTimes%20New%20Roman%3B%22%20vertex%3D%221%22%20parent%3D%221%22%3E%3CmxGeometry%20x%3D%2289%22%20y%3D%22430%22%20width%3D%2250%22%20height%3D%22220%22%20as%3D%22geometry%22%2F%3E%3C%2FmxCell%3E%3C%2Froot%3E%3C%2FmxGraphModel%3E&lt;/span&gt;&lt;/div&gt;&lt;span style=&quot;font-size: 24px;&quot;&gt;模&lt;/span&gt;&lt;br&gt;&lt;span style=&quot;font-size: 24px;&quot;&gt;型&lt;/span&gt;" style="rounded=0;whiteSpace=wrap;html=1;fontFamily=Times New Roman;" vertex="1" parent="1">
          <mxGeometry x="1070" y="102.5" width="50" height="315" as="geometry" />
        </mxCell>
        <mxCell id="nycaLOQwl6AMqy3h6ecp-47" value="&lt;font style=&quot;font-size: 24px;&quot;&gt;提&lt;br&gt;出&lt;br&gt;物&lt;br&gt;流&lt;br&gt;配&lt;br&gt;送&lt;br&gt;路&lt;br&gt;径&lt;br&gt;规&lt;br&gt;划&lt;br&gt;算&lt;br&gt;法&lt;br&gt;&lt;/font&gt;" style="rounded=0;whiteSpace=wrap;html=1;fontFamily=Times New Roman;" vertex="1" parent="1">
          <mxGeometry x="1071" y="450" width="50" height="370" as="geometry" />
        </mxCell>
        <mxCell id="nycaLOQwl6AMqy3h6ecp-48" value="&lt;font style=&quot;font-size: 24px;&quot;&gt;系&lt;br&gt;统&lt;br&gt;设&lt;br&gt;计&lt;br&gt;与&lt;br&gt;实&lt;br&gt;现&lt;br&gt;&lt;/font&gt;" style="rounded=0;whiteSpace=wrap;html=1;fontFamily=Times New Roman;" vertex="1" parent="1">
          <mxGeometry x="1070" y="840" width="50" height="220" as="geometry" />
        </mxCell>
        <mxCell id="nycaLOQwl6AMqy3h6ecp-56" value="" style="strokeWidth=2;html=1;shape=mxgraph.flowchart.annotation_2;align=left;labelPosition=right;pointerEvents=1;" vertex="1" parent="1">
          <mxGeometry x="1250" y="120" width="50" height="190" as="geometry" />
        </mxCell>
        <mxCell id="nycaLOQwl6AMqy3h6ecp-59" value="&lt;font face=&quot;宋体&quot;&gt;配送中心信息&lt;/font&gt;" style="rounded=0;whiteSpace=wrap;html=1;fontSize=24;fillColor=none;" vertex="1" parent="1">
          <mxGeometry x="1300" y="96.5" width="260" height="43.5" as="geometry" />
        </mxCell>
        <mxCell id="nycaLOQwl6AMqy3h6ecp-60" value="&lt;font face=&quot;宋体&quot;&gt;货物信息&lt;/font&gt;" style="rounded=0;whiteSpace=wrap;html=1;fontSize=24;fillColor=none;" vertex="1" parent="1">
          <mxGeometry x="1300" y="160" width="260" height="40" as="geometry" />
        </mxCell>
        <mxCell id="nycaLOQwl6AMqy3h6ecp-61" value="&lt;font face=&quot;宋体&quot;&gt;交通状况&lt;/font&gt;" style="rounded=0;whiteSpace=wrap;html=1;fontSize=24;fillColor=none;" vertex="1" parent="1">
          <mxGeometry x="1300" y="220" width="260" height="40" as="geometry" />
        </mxCell>
        <mxCell id="nycaLOQwl6AMqy3h6ecp-62" value="&lt;font face=&quot;宋体&quot;&gt;配送目标位置信息&lt;/font&gt;" style="rounded=0;whiteSpace=wrap;html=1;fontSize=24;fillColor=none;" vertex="1" parent="1">
          <mxGeometry x="1300" y="290" width="260" height="40" as="geometry" />
        </mxCell>
        <mxCell id="nycaLOQwl6AMqy3h6ecp-73" style="edgeStyle=orthogonalEdgeStyle;rounded=0;orthogonalLoop=1;jettySize=auto;html=1;exitX=1;exitY=0.5;exitDx=0;exitDy=0;" edge="1" parent="1" source="nycaLOQwl6AMqy3h6ecp-66" target="nycaLOQwl6AMqy3h6ecp-67">
          <mxGeometry relative="1" as="geometry" />
        </mxCell>
        <mxCell id="nycaLOQwl6AMqy3h6ecp-66" value="&lt;font face=&quot;宋体&quot;&gt;系统性能评估&lt;/font&gt;" style="whiteSpace=wrap;html=1;fontSize=24;fillColor=none;rounded=0;" vertex="1" parent="1">
          <mxGeometry x="1263" y="950" width="188.5" height="60" as="geometry" />
        </mxCell>
        <mxCell id="nycaLOQwl6AMqy3h6ecp-67" value="&lt;font face=&quot;宋体&quot;&gt;系统优化&lt;/font&gt;" style="whiteSpace=wrap;html=1;fontSize=24;fillColor=none;rounded=0;" vertex="1" parent="1">
          <mxGeometry x="1496.5" y="950" width="158.5" height="60" as="geometry" />
        </mxCell>
      </root>
    </mxGraphModel>
  </diagram>
</mxfile>
